<svg width="24" height="24" viewBox="0 0 24 24" fill="none" xmlns="http://www.w3.org/2000/svg">
<path d="M12.576 1.839C12.5125 1.74464 12.4267 1.66734 12.3263 1.6139C12.2258 1.56046 12.1138 1.53251 12 1.53251C11.8863 1.53251 11.7742 1.56046 11.6738 1.6139C11.5734 1.66734 11.4876 1.74464 11.424 1.839L4.58402 11.541C4.49054 11.6758 4.44045 11.8359 4.44045 12C4.44045 12.164 4.49054 12.3242 4.58402 12.459L11.424 22.1625C11.4876 22.2569 11.5734 22.3342 11.6738 22.3876C11.7742 22.441 11.8863 22.469 12 22.469C12.1138 22.469 12.2258 22.441 12.3263 22.3876C12.4267 22.3342 12.5125 22.2569 12.576 22.1625L19.416 12.459C19.5095 12.3242 19.5596 12.164 19.5596 12C19.5596 11.8359 19.5095 11.6758 19.416 11.541L12.576 1.839ZM10.272 0.919498C10.4629 0.636739 10.7203 0.40515 11.0216 0.245047C11.3229 0.0849444 11.6588 0.0012207 12 0.0012207C12.3412 0.0012207 12.6772 0.0849444 12.9784 0.245047C13.2797 0.40515 13.5371 0.636739 13.728 0.919498L20.568 10.6215C20.8493 11.0261 21.0001 11.5072 21.0001 12C21.0001 12.4928 20.8493 12.9738 20.568 13.3785L13.728 23.0805C13.5371 23.3633 13.2797 23.5948 12.9784 23.755C12.6772 23.9151 12.3412 23.9988 12 23.9988C11.6588 23.9988 11.3229 23.9151 11.0216 23.755C10.7203 23.5948 10.4629 23.3633 10.272 23.0805L3.43202 13.38C3.15071 12.9753 2.99994 12.4943 2.99994 12.0015C2.99994 11.5087 3.15071 11.0276 3.43202 10.623L10.272 0.919498Z" fill="black"/>
</svg>
