<svg width="24" height="24" viewBox="0 0 24 24" fill="none" xmlns="http://www.w3.org/2000/svg">
<path d="M12.4697 0C8.72818 0 6.30479 1.53295 4.40218 4.26684C4.05704 4.76278 4.16344 5.44275 4.6449 5.80781L6.66699 7.34105C7.15322 7.70972 7.84505 7.62352 8.22572 7.14661C9.3999 5.67562 10.2709 4.82869 12.105 4.82869C13.547 4.82869 15.3307 5.75677 15.3307 7.15514C15.3307 8.21227 14.458 8.75517 13.0342 9.55345C11.3737 10.4844 9.1764 11.643 9.1764 14.5412V15C9.1764 15.6213 9.68007 16.125 10.3014 16.125H13.6985C14.3198 16.125 14.8235 15.6213 14.8235 15V14.7294C14.8235 12.7203 20.6954 12.6367 20.6954 7.2C20.6955 3.10575 16.4485 0 12.4697 0ZM12 17.5059C10.2095 17.5059 8.75288 18.9625 8.75288 20.753C8.75288 22.5434 10.2095 24 12 24C13.7904 24 15.247 22.5434 15.247 20.7529C15.247 18.9625 13.7904 17.5059 12 17.5059Z" fill="black"/>
</svg>
